<svg xmlns="http://www.w3.org/2000/svg" xmlns:xlink="http://www.w3.org/1999/xlink" width="1399" height="600" viewBox="0 0 1399 600"><defs><linearGradient id="a" x1="0.5" y1="0.056" x2="0.5" y2="0.768" gradientUnits="objectBoundingBox"><stop offset="0" stop-color="#fff"/><stop offset="0.9" stop-color="#ece9ff"/><stop offset="1" stop-color="#eae6ff"/></linearGradient><clipPath id="b"><rect width="1398.073" height="586.753" fill="none"/></clipPath></defs><rect width="1398.073" height="599.983" fill="url(#a)"/><g transform="translate(0.927)" clip-path="url(#b)"><path d="M134.84,384.28l4.69,5.187q-1.9-2.507-3.752-5.172Z" transform="translate(-0.062 127.122)" fill="none"/><path d="M95.22,411.4c9.66,15.909,23.964,29.957,32.452,36.154l79.957-.363L173,411.4Z" transform="translate(-53.342 142.762)" fill="#dcd0fe"/><path d="M141.147,387.484,93.032,385.34c-5.159,12.235-.422,27.088,7.761,40.679h77.635Z" transform="translate(-59.174 127.734)" fill="#dcd0fe"/><path d="M185.219,444.234l34.937-.158a284.908,284.908,0,0,0-8.723-28.286L180.6,437.312Z" transform="translate(61.475 145.294)" fill="#dcd0fe"/><path d="M161.577,345.53c-23.448,2.334-32.053,11.352-32.827,22.846l49.662,2.412Z" transform="translate(-8.252 104.775)" fill="#dcd0fe"/><path d="M102.729,384.056l39.978-.189-18.2-27.277H77.71Z" transform="translate(103.354 205.645)" fill="#dcd0fe"/><path d="M197.727,456.9l30.928-21.585a285.332,285.332,0,0,0-25.792-54.175L167.69,411.586Z" transform="translate(44.114 125.311)" fill="#dcd0fe"/><path d="M84.848,344.86l-25.488,28.7,16.929,17.5,50.436-.236Z" transform="translate(78.677 198.88)" fill="#dcd0fe"/><path d="M182.572,425.431l35.172-30.446c-9.215-14.553-20.4-28.286-33.788-38.535l-27.645,29.7Z" transform="translate(28.81 111.073)" fill="#dcd0fe"/><path d="M178.663,362.708l-49.944-2.428c-.586,11.51,6.589,25.385,14.983,37.462l59.182,1.324Z" transform="translate(-8.338 113.281)" fill="#dcd0fe"/><path d="M201.566,362.623c-14.842-11.273-32.334-18.258-52.781-17.344-2.017.095-3.916.221-5.745.394l30.9,46.513Z" transform="translate(10.965 104.584)" fill="#dcd0fe"/><path d="M157.973,449.64l25.6-28.712-25.793-28.144a116.067,116.067,0,0,0-23.917-16.634L119.8,410.286Z" transform="translate(-20.288 122.434)" fill="#dcd0fe"/><path d="M139.015,389.462l41.2,45.251h46.9l-32.71-49.1L135.24,384.29Q137.022,386.986,139.015,389.462Z" transform="translate(0.476 127.128)" fill="#dcd0fe"/><path d="M155.545,379.075c-15.007-7.552-32.827-11.415-52.195-5.582l38.243,39.528Z" transform="translate(-42.409 119.273)" fill="#dcd0fe"/><path d="M118.262,372.55c-.985.3-1.946.631-2.954.978-11.366,3.8-19.864,10.608-23.448,18.794l47.552,2.128Z" transform="translate(-57.861 120.358)" fill="#dcd0fe"/><path d="M180.688,452.175v.11l-.492-.2.234-.268L142.351,412.4v.079l-.563-.11.164-.426L103.709,372.41l-.539.174,21.1,21.9h.586v.394h-.141L162,433.412h.539v.394h-.164L197.008,469.6h.7Z" transform="translate(-42.651 120.277)" fill="#6242ba"/><path d="M231.382,477.948l-.422-.268.3-.205-30.177-45.314v.095l-.469-.236.3-.252-26.168-39.291v.095l-.492-.2.281-.315-31.209-46.56h-.586l16.835,25.227h.492v.394h-.328l24.222,36.359h.469v.394h-.188l32.71,49.1h.446v.394h-.188l18.172,27.293h.633l-4.69-6.922Z" transform="translate(10.575 104.752)" fill="#6242ba"/><path d="M161.7,414.744l.492.2-.258.284L203.9,461.193h.68l-25.019-27.466h-.516v-.394h.164l-41.2-45.251.938,1.246c-.938-.867-1.9-1.75-2.884-2.617L161.7,414.838Z" transform="translate(1.592 128.524)" fill="#6242ba"/><path d="M139.516,387.213,91.964,385.1l-.164.394,48.115,2.144Z" transform="translate(-57.941 127.595)" fill="#6242ba"/><path d="M35.819,326.92l.047-.394-.586-.016.4.41Z" transform="translate(46.295 188.298)" fill="#6242ba"/><path d="M120.122,410.378l14.069-34.135-.492-.252L119.63,409.936Z" transform="translate(-20.516 122.341)" fill="#6242ba"/><path d="M42.71,338.006l.563.11.047-.095-.446-.441Z" transform="translate(56.286 194.682)" fill="#6242ba"/><path d="M172.756,411.15H95.12l.234.394h77.776Z" transform="translate(-53.477 142.618)" fill="#6242ba"/><path d="M51.889,351.6v-.394H51.35l.4.394Z" transform="translate(67.905 202.542)" fill="#6242ba"/><path d="M84.735,344.62,59.2,373.316l.375.378L85.063,345Z" transform="translate(78.462 198.742)" fill="#6242ba"/><path d="M59.1,363.1l.516.189.094-.095-.375-.378Z" transform="translate(78.327 209.238)" fill="#6242ba"/><path d="M70.676,344.755l-.516-.2-.07.11.328.378Z" transform="translate(93.106 198.702)" fill="#6242ba"/><path d="M178.389,362.46,128.75,360v.394l49.944,2.428Z" transform="translate(-8.252 113.12)" fill="#6242ba"/><path d="M73.5,302.04l.047-.394-.492-.016.281.394Z" transform="translate(97.087 173.95)" fill="#6242ba"/><path d="M156.525,386.255l27.645-29.705-.4-.3L156.22,385.813Z" transform="translate(28.689 110.957)" fill="#6242ba"/><path d="M79.23,315.385l.492.205.07-.079-.281-.442Z" transform="translate(105.398 181.701)" fill="#6242ba"/><path d="M194.594,385.782l-.258-.394L135.13,384l.281.394Z" transform="translate(0.328 126.961)" fill="#6242ba"/><path d="M83.946,325.344l.023-.394H83.5l.258.394Z" transform="translate(111.14 187.398)" fill="#6242ba"/><path d="M167.768,411.746,202.94,381.3l-.258-.41L167.51,411.336Z" transform="translate(43.872 125.167)" fill="#6242ba"/><path d="M90.51,340.528l.445.237.117-.095-.258-.41Z" transform="translate(120.567 196.228)" fill="#6242ba"/><path d="M77.912,356.734h46.8l-.258-.394H77.56Z" transform="translate(103.152 205.501)" fill="#6242ba"/><path d="M98.006,356.734v-.394H97.56l.258.394Z" transform="translate(130.047 205.501)" fill="#6242ba"/><path d="M77.49,356.34v.394h.516l-.352-.394Z" transform="translate(103.058 205.501)" fill="#6242ba"/><path d="M474.262,305.589l.141-5.219-2.532,5.219Z" transform="translate(633.411 173.223)" fill="#6242ba"/><path d="M99.109,387.236l-.07-1.056-.328.016Z" transform="translate(131.594 222.71)" fill="none"/><path d="M172.8,380.31l7.433,103.747,4.291-.126S195.99,381.966,172.8,380.31Z" transform="translate(50.985 124.833)" fill="#6242ba"/><path d="M201.2,486.688,193.771,382.91h-.234c-11.349.331-10.622,23.02-6.636,47.1-7.691-28-18.313-55.657-30.13-54.175L200.875,486.72Z" transform="translate(29.429 122.217)" fill="#6242ba"/><path d="M216.23,478.991h0l.563,1.009,4.5-.678-79.91-91.1C125.042,398.705,216.23,478.991,216.23,478.991Z" transform="translate(6.102 129.394)" fill="#6242ba"/><path d="M221.211,486.223l.938.442h0L178.09,375.87c-12.451,2.586,0,35.933,13.881,65.449-17.727-24.943-39.392-50.722-50.811-46.576a5.962,5.962,0,0,0-.68.315l80.051,91.275Z" transform="translate(7.522 122.272)" fill="#6242ba"/><path d="M141.319,389.2l.446-.252-2.2-2.507" transform="translate(6.285 128.368)" fill="#bba4ff"/><path d="M140.756,388l-.446.252,79.91,91.2.61-.095Z" transform="translate(7.294 129.268)" fill="#bba4ff"/><path d="M201.2,486.679,157.093,375.79h-.188l-.375.095,44.058,110.795Z" transform="translate(29.106 122.226)" fill="#bba4ff"/><path d="M172.55,380.29l7.433,103.778h.656l-7.433-103.747Z" transform="translate(50.649 124.821)" fill="#bba4ff"/><path d="M169.2,334.73c-39.134,6.023,56.955,167.43,56.955,167.43h.211c.141,1.135.234,1.782.234,1.782l7.034.237L170.588,334.62A13.081,13.081,0,0,0,169.2,334.73Z" transform="translate(33.548 98.483)" fill="#bba4ff"/><path d="M229.721,511.181l1.2.978,1.29.2,2.345-189.772c-22.088-.662-24.2,56.761-21.642,108.382-11.419-43.58-28.137-89.509-48.209-89.462L227.681,511.1Z" transform="translate(40.093 91.544)" fill="#bba4ff"/><path d="M195.844,512.748l54.3-167.808-.422-.095c-18.266-2.854-32.1,33.473-41.62,73,6.214-46.7,7.5-93.7-12.052-95.217l-2.345,189.8Z" transform="translate(79.105 91.569)" fill="#bba4ff"/><path d="M249.1,336.85,194.87,504.627l4.947.773S285.73,345.616,249.1,336.85Z" transform="translate(80.665 99.769)" fill="#bba4ff"/><path d="M194.046,512.423l2.345-189.8h-.516L193.53,512.391Z" transform="translate(78.863 91.563)" fill="#6242ba"/><path d="M165.006,334.59h-.586l62.957,169.527h.61Z" transform="translate(39.716 98.466)" fill="#6242ba"/><path d="M248.925,336.77l-54.3,167.824.563.095L249.441,336.9Z" transform="translate(80.328 99.723)" fill="#6242ba"/><path d="M473.031,300.843l-.141,5.219h.586l.164-6.512Z" transform="translate(634.782 172.75)" fill="#bba4ff"/><path d="M611.9,346.62,550.188,474.333,550,480.766h4.1l.305-1.419h.164S639.5,355.639,611.9,346.62Z" transform="translate(558.235 105.404)" fill="#6242ba"/><path d="M566.4,482.633l6.284-.757-37.516-135.6C509.708,357.364,566.4,482.633,566.4,482.633Z" transform="translate(529.45 105.208)" fill="#6242ba"/><path d="M570,487.948l1.032-.757h0l3.189-6.575,3.588-145.167c-15.382,1.419-17.164,38.866-15.077,76.2-5.229-32.054-14.069-61.665-28.981-59.915a9.426,9.426,0,0,0-2.11.52L569.156,488Z" transform="translate(533.545 98.962)" fill="#6242ba"/><path d="M611.229,352.943a3.653,3.653,0,0,1-.633-.173c-16.6-3.153-33.624,34.561-45.864,70.415,5.252-41.467,7.034-87.775-10.763-87.775h-.328L550.1,479.347Z" transform="translate(558.369 98.939)" fill="#6242ba"/><path d="M531.44,346.329l.539-.189" transform="translate(533.276 105.127)" fill="#bba4ff"/><path d="M531.979,346.14l-.539.189,37.516,135.6h.586Z" transform="translate(533.276 105.127)" fill="#bba4ff"/><path d="M550.463,479.367,554,335.43h-.586L549.83,480.6Z" transform="translate(558.006 98.951)" fill="#bba4ff"/><path d="M550.08,474.334l61.714-127.713-.539-.142L550.127,472.994Z" transform="translate(558.343 105.323)" fill="#bba4ff"/><path d="M620.518,380.336a156.513,156.513,0,0,1-12.568,11.352c2.486-2,4.924-3.91,7.339-5.755l6.143-5.723Z" transform="translate(636.165 124.775)" fill="none"/><path d="M621.138,377l-8.418,7.883c3.189-2.381,6.331-4.635,9.379-6.732Z" transform="translate(642.579 122.924)" fill="none"/><path d="M512.19,366.1l27.434,25.479L573.9,362.651,545.556,335.09Z" transform="translate(687.632 193.246)" fill="#dcd0fe"/><path d="M655.16,380.29l-52.828,6.748L582.19,420.37l32.686-1.876,35.172-32.606c-2.345,1.845-4.854,3.753-7.339,5.755a155.614,155.614,0,0,0,12.451-11.352Z" transform="translate(601.523 124.821)" fill="#dcd0fe"/><path d="M676.377,387.181,655.438,364.13A195.482,195.482,0,0,0,616.89,385.3L643.1,415.262Z" transform="translate(648.187 115.502)" fill="#dcd0fe"/><path d="M625.186,384.445l-21.736,20.2L631.822,432.2l29-24.486L634.565,377.76C631.517,379.81,628.375,382.064,625.186,384.445Z" transform="translate(630.113 123.362)" fill="#dcd0fe"/><path d="M681.317,380.9c-1.624-7.2-7.164-13.731-15.546-18.337L647.81,377.728Z" transform="translate(689.768 114.596)" fill="#dcd0fe"/><path d="M635.1,397.2l55.2,7.048c6.049-9.46,8.769-17.927,8.769-24.123a19.818,19.818,0,0,0-.563-4.525L664.48,372.45Z" transform="translate(672.675 120.3)" fill="#dcd0fe"/><path d="M684.465,363.947c-10.95-5.361-27.622-6.575-50.905,2.491l20.8,22.925Z" transform="translate(670.604 112.989)" fill="#dcd0fe"/><path d="M646.683,325.73c-9.825-1.876-22.44-1.009-37.868,3.453a69.344,69.344,0,0,0-18.125,8.294L624.384,362.7Z" transform="translate(612.954 92.82)" fill="#dcd0fe"/><path d="M608.14,431.227l55.946,6.449a219.356,219.356,0,0,0,36.086-23.919L638.036,406Z" transform="translate(636.42 139.648)" fill="#dcd0fe"/><path d="M615.267,405.608,576.789,379.34a345.929,345.929,0,0,0-12.779,47.632l29.779,14.19Z" transform="translate(577.075 124.273)" fill="#dcd0fe"/><path d="M567.523,409.81a386.406,386.406,0,0,0-6.143,43.154H579.6l17.586-29.059Z" transform="translate(573.539 141.845)" fill="#dcd0fe"/><path d="M522.265,346.726,492.51,395.935H499.8L554.74,344.85Z" transform="translate(661.167 198.875)" fill="#dcd0fe"/><path d="M643.366,341.385c-3.8-7.884-11.185-13.686-22.158-15.925l-11.138,18.4Z" transform="translate(639.016 93.201)" fill="#dcd0fe"/><path d="M641.528,358.322,607.646,333c-11.888,7.694-21.736,18.81-29.9,31.707l41.409,30.6Z" transform="translate(595.552 97.549)" fill="#dcd0fe"/><path d="M629.968,383.984l-41.409-30.6a204.583,204.583,0,0,0-19.04,40.395l38.642,26.378Z" transform="translate(584.485 109.302)" fill="#dcd0fe"/><path d="M590.89,400.332l53.015-6.78c11.275-11.322,19.6-23.851,24.62-37.052l-54.75,5.881Z" transform="translate(613.223 111.102)" fill="#dcd0fe"/><path d="M533.7,354.98,495.93,390.093H549.7l11.419-9.649Z" transform="translate(665.766 204.717)" fill="#dcd0fe"/><path d="M596,445.807h45.489a315.558,315.558,0,0,0,38.29-17.154l-55.642-6.433Z" transform="translate(620.095 149.002)" fill="#dcd0fe"/><path d="M600.79,373.933l54.633-5.865c4.385-12.283,4.689-23.54.61-32.228l-33.648,2.46Z" transform="translate(626.536 99.187)" fill="#dcd0fe"/><path d="M653.559,388.37,621.06,415.8l62.113,7.773a127.968,127.968,0,0,0,25.793-28.128Z" transform="translate(653.795 129.481)" fill="#dcd0fe"/><path d="M599.294,452.476v-.394h.469L619.9,418.751h-.164v-.394h.539l22.955-37.951h-.164v-.394h.516l21.361-35.7h-.164v-.394h.492l11.138-18.4-.563-.11L653.529,362.32l.3.237-.446.268-.117-.095-22.393,37.005.3.236-.445.268-.117-.095-21.947,36.138.3.221-.422.284-.141-.095-21.478,35.523.3.142-.328.315-.188-.095L569.14,501.638h.633l29.708-49.162Z" transform="translate(583.974 93.172)" fill="#6242ba"/><path d="M624.229,456.76v-.394h.493l29.9-25.227h-.164v-.394h.469l32.5-27.435h-.164v-.394h.469l29.38-24.817h-.164V377.7h.516l17.961-15.168-.469-.236-30.107,25.416.211.236-.492.2v-.11l-33.249,28.081.211.252-.492.2v-.11l-28.841,24.66.235.221-.493.221-.117-.126L607.534,470.4l.234.2-.469.237-.141-.126-11.419,9.649h.61l27.926-23.65Z" transform="translate(619.745 114.446)" fill="#6242ba"/><path d="M610.824,433.668l.469-.237.117.11L644.776,402.5l-.234-.236.492-.221.117.11L666.888,382l-3.846,2.9-35.172,32.606h.141v.394h-.633L572.44,468.986h.727l37.774-35.113Z" transform="translate(588.412 125.807)" fill="#6242ba"/><path d="M512.04,355.107l27.411,25.464.375-.331L512.392,354.76Z" transform="translate(687.43 204.59)" fill="#6242ba"/><path d="M523.871,371.361l.469-.221-.234-.221-.375.331Z" transform="translate(703.151 213.909)" fill="#6242ba"/><path d="M512.409,354.69l-.469.237.234.221.352-.347Z" transform="translate(687.296 204.549)" fill="#6242ba"/><path d="M526.42,335.211l28.348,27.561.375-.331L526.8,334.88Z" transform="translate(706.768 193.125)" fill="#6242ba"/><path d="M538.627,352.8l.492-.221-.235-.221-.375.331Z" transform="translate(723.027 203.206)" fill="#6242ba"/><path d="M526.789,334.81l-.469.221.235.221.375-.331Z" transform="translate(706.634 193.084)" fill="#6242ba"/><path d="M642.968,407.838l.4-.331L617.152,377.55l-.422.284Z" transform="translate(647.972 123.241)" fill="#6242ba"/><path d="M551.157,337.061l.492-.189-.211-.252-.4.331Z" transform="translate(739.876 194.128)" fill="#6242ba"/><path d="M654.667,386.925,633.846,364l-.516.189,20.939,23.051Z" transform="translate(670.295 115.427)" fill="#6242ba"/><path d="M565.507,319.051l.492-.2-.211-.237-.4.315Z" transform="translate(759.174 183.742)" fill="#6242ba"/><path d="M647.63,372.56l34.023,3.153v-.41l-33.507-3.153Z" transform="translate(689.525 120.127)" fill="#6242ba"/><path d="M570.774,312.22l-.094.394.164.016.445-.363Z" transform="translate(766.288 180.057)" fill="#6242ba"/><path d="M634.92,388.5l55.36,7.079.234-.378-55.2-7.048Z" transform="translate(672.433 129.354)" fill="#6242ba"/><path d="M558.087,328.18l-.117.378.188.032.4-.363Z" transform="translate(749.196 189.261)" fill="#6242ba"/><path d="M620.89,406.127,683,413.9l.422-.347-62.113-7.773Z" transform="translate(653.566 139.521)" fill="#6242ba"/><path d="M543.94,346.178l.188.016.4-.347-.469-.047Z" transform="translate(730.329 199.422)" fill="#6242ba"/><path d="M608,422.347l55.735,6.433.61-.331L608.328,422Z" transform="translate(636.232 148.875)" fill="#6242ba"/><path d="M531.01,362.424l.188.016.4-.347-.469-.063Z" transform="translate(712.941 208.782)" fill="#6242ba"/><path d="M505.2,346.882l32.475-1.876.469-.426-32.686,1.892Z" transform="translate(678.232 198.719)" fill="#6242ba"/><path d="M505.11,345.8l.047.394h.164l.258-.41Z" transform="translate(678.111 199.411)" fill="#6242ba"/><path d="M519.707,344.974l-.047-.394h-.141l-.469.426Z" transform="translate(696.857 198.719)" fill="#6242ba"/><path d="M593.789,423.7,564.01,409.51v.441l29.638,14.08Z" transform="translate(577.075 141.672)" fill="#6242ba"/><path d="M499.928,359.043l.328-.315-.3-.158-.211.378Z" transform="translate(670.889 206.787)" fill="#6242ba"/><path d="M608.256,405.378,569.614,379l-.164.457,38.5,26.347Z" transform="translate(584.391 124.077)" fill="#6242ba"/><path d="M509.117,336.289l.422-.284-.3-.2-.234.394Z" transform="translate(683.342 193.655)" fill="#6242ba"/><path d="M614.238,380.377l.493-.457-.961.126-.469.457Z" transform="translate(643.359 124.608)" fill="#6242ba"/><path d="M590.78,387.206l52.828-6.748.469-.457-53.016,6.78Z" transform="translate(613.075 124.654)" fill="#6242ba"/><path d="M513.79,324.439l.118.378.141-.016.281-.442Z" transform="translate(689.784 187.058)" fill="#6242ba"/><path d="M619.3,383.724l-41.409-30.6-.258.394,41.409,30.6Z" transform="translate(595.391 109.152)" fill="#6242ba"/><path d="M518.547,313.089l.422-.268-.3-.221-.235.394Z" transform="translate(696.023 180.276)" fill="#6242ba"/><path d="M600.68,362.531l54.68-5.881.141-.41-54.563,5.928Z" transform="translate(626.388 110.952)" fill="#6242ba"/><path d="M523.69,300.077l.094.394.164-.016.258-.426Z" transform="translate(703.097 173.027)" fill="#6242ba"/><path d="M624.616,358.027,590.922,332.8l-.422.268L624.382,358.3Z" transform="translate(612.698 97.434)" fill="#6242ba"/><path d="M528.2,289.359l.422-.268-.3-.221-.234.394Z" transform="translate(709 166.591)" fill="#6242ba"/><path d="M631.689,392.206a4.32,4.32,0,0,0-1.852-1.23c-10.27-3.737-29.755,19.457-45.7,41.893,12.263-26.2,23.448-55.768,12.92-58.779L558.79,470.127Z" transform="translate(570.055 121.246)" fill="#bba4ff"/><path d="M596.934,374.026h-.211c-10.692-1.577-20.329,23.4-27.27,48.72,3.588-21.664,4.221-42.066-5.979-42.366h-.164l-4.83,90.061Z" transform="translate(569.639 121.168)" fill="#bba4ff"/><path d="M480.78,377.717l.61.032.492-1.2Z" transform="translate(645.393 217.156)" fill="#bba4ff"/><path d="M567.792,378c-20.845,1.577-10.528,93.214-10.528,93.214l3.681.11,1.97-2.1Z" transform="translate(564.57 123.501)" fill="#bba4ff"/><path d="M558.44,465.321v1.167l5.111.773.516-.914h0s76.768-67.483,68.374-80.506L558.7,464.564Z" transform="translate(569.585 128.022)" fill="#bba4ff"/><path d="M559.57,470.144l38.29-95.958-.563-.126-38.454,96.384,4.83-90.172h-.586l-4.877,91.212Z" transform="translate(569.276 121.228)" fill="#6242ba"/><path d="M482.588,375.84l-1.055,1.119-.492,1.2h.3l.844-.394h.023l.07-1.167Z" transform="translate(645.742 216.747)" fill="#6242ba"/><path d="M482.436,376.47l.023-.52-1.97,2.1.68.016,1.1-1.167Z" transform="translate(645.003 216.81)" fill="#6242ba"/><path d="M559.086,463.5l-.516,1.277,73.7-78.788a3.553,3.553,0,0,0-.3-.41Z" transform="translate(569.76 127.872)" fill="#6242ba"/><path d="M481.414,377.007l-.164.426,1.055-1.119.493-1.293-1.36,1.466Z" transform="translate(646.025 216.274)" fill="#6242ba"/><path d="M103.9,369.749l.141-.095-.258-.394-.281.205Z" transform="translate(138.035 212.952)" fill="#6242ba"/><path d="M564,409.971v-.441" transform="translate(577.062 141.684)" fill="#6242ba"/><path d="M590.5,333.1l.422-.268" transform="translate(612.698 97.451)" fill="#6242ba"/><path d="M610,338.461l33.741-2.523-.188-.378-33.3,2.491Z" transform="translate(638.921 99.026)" fill="#6242ba"/><path d="M532.99,277.247l.047.394.188-.016.234-.426Z" transform="translate(715.603 159.861)" fill="#6242ba"/><path d="M547.445,264.426s-7.034-7.552-5.7-8.877c1.2-1.041,5.018,3.847,5.018,3.847a61.842,61.842,0,0,0-2.345-7.631c-1.1-2.491,3.517-3.28,7.315,1.025s2.228,11.62,2.228,11.62Z" transform="translate(546.909 49.526)" fill="#f3a9b8"/><path d="M418.207,308.359s-8.488-1.813-9.567,6.764c0,4.9,2.345,4.73,2.345,4.73l9.1-4.73Z" transform="translate(368.137 83.246)" fill="#f3a9b8"/><path d="M243.782,309.67,226.97,499.962h17l44.222-161.5,26,161.5H330.14l.891-190.292Z" transform="translate(304.075 178.586)" fill="#ea4272"/><path d="M13.482,0h0c7.459,0,13.506,4.066,13.506,9.082V24.2H0V9.082C0,4.072,6.033.009,13.482,0Z" transform="translate(605.609 406.568) rotate(180)" fill="#e87d91"/><path d="M324.714,291.461a8.4,8.4,0,0,0-5.1,1.147,3.637,3.637,0,0,0-1.93,3.378c0,5.03,9.215,5.55,9.215,5.55Z" transform="translate(245.793 73.576)" fill="#f3a9b8"/><path d="M340.361,291.461a8.4,8.4,0,0,1,5.1,1.147,3.637,3.637,0,0,1,1.93,3.378c0,5.03-9.215,5.55-9.215,5.55Z" transform="translate(273.384 73.576)" fill="#f3a9b8"/><rect width="43.965" height="41.215" rx="9.37" transform="translate(614.097 389.003) rotate(180)" fill="#f3a9b8"/><path d="M193.871,314.37,179.38,497.251h22.838l41.1-145.718,26.4,145.718h22.838l1.5-182.881Z" transform="translate(240.077 181.297)" fill="#4f2caf"/><path d="M361.068,342.591c0-41.357-30.717-35.318-61.457-35.318s-29.474,35.318-29.474,35.318l-8.957,77.747c35.312,8.057,70.343,8.23,104.765,0Z" transform="translate(169.837 82.534)" fill="#dfd2fd"/><line x1="1.97" y1="9.681" transform="translate(463.891 360.796)" fill="#f3a9b8"/><path d="M291.5,318.8h0c-7.175,0-12.967-.126-12.967-4.935V299.33h25.933v14.537C304.463,318.676,298.672,318.8,291.5,318.8Z" transform="translate(193.169 78.132)" fill="#e87d91"/><rect width="42.253" height="39.607" rx="9.01" transform="translate(505.792 383.832) rotate(180)" fill="#f3a9b8"/><path d="M592.063,342.591c0-41.357-30.716-35.318-61.457-35.318s-29.474,35.318-29.474,35.318l-6,70.541a189.589,189.589,0,0,0,100.169,0Z" transform="translate(484.447 82.534)" fill="#bba4ff"/><path d="M503.451,374.3,488.96,557.2H511.8l42.511-155.21L579.281,557.2h22.861l1.477-182.9a210.973,210.973,0,0,1-100.169,0Z" transform="translate(476.15 121.367)" fill="#ea4272"/><path d="M511.85,288.773a8.134,8.134,0,0,0-4.978,1.074,3.515,3.515,0,0,0-1.892,3.277c0,4.84,8.84,5.329,8.84,5.329Z" transform="translate(497.67 72.023)" fill="#f3a9b8"/><path d="M526.75,288.773a8.134,8.134,0,0,1,4.978,1.074,3.515,3.515,0,0,1,1.892,3.277c0,4.84-8.84,5.329-8.84,5.329Z" transform="translate(524.32 72.023)" fill="#f3a9b8"/><path d="M524.2,319.312h0c-7.175,0-12.967-.646-12.967-5.455V299.32h25.933v14.537C537.163,318.682,531.348,319.312,524.2,319.312Z" transform="translate(506.098 78.126)" fill="#e87d91"/><rect width="42.253" height="39.607" rx="9.01" transform="translate(1051.398 383.832) rotate(180)" fill="#f3a9b8"/><path d="M445.206,310.125s-30.482-1.34-35.828,21.538c-6.378,27.545,17.07,30.7-6.378,72.244h87.249s-19.368-15.089-3.916-49.556S469.4,310.125,445.206,310.125Z" transform="translate(360.553 84.349)" fill="#d7c5ff"/><path d="M429.606,323.389h0c-7.456,0-13.506-.8-13.506-5.818V302.45h26.988v15.057C443.112,322.584,436.969,323.389,429.606,323.389Z" transform="translate(378.169 79.931)" fill="#e87d91"/><line x1="2.04" y1="10.075" transform="translate(786.157 365.037)" fill="#f3a9b8"/><path d="M434.461,321.729h0c-12.118-.026-21.932-6.625-21.971-14.774V295.3c.039-8.148,9.853-14.748,21.971-14.774h0c12.118.026,21.932,6.625,21.971,14.774v11.652C456.393,315.1,446.579,321.7,434.461,321.729Z" transform="translate(373.315 67.29)" fill="#f3a9b8"/><path d="M148.354,316.32,132.48,496.127h16.062l41.784-152.593L214.9,496.127h15.053L230.8,316.32Z" transform="translate(177.007 182.421)" fill="#f3a9b8"/><path d="M256.155,320.065S227.408,318.8,222.3,340.4c-6.167,26.031,16.132,29.011-6.167,68.271h82.442s-18.289-14.19-3.7-46.828S278.9,320.065,256.155,320.065Z" transform="translate(109.255 90.082)" fill="#ea4272"/><path d="M241.316,335.672h0c-7.045,0-12.756-3.84-12.756-8.577V312.81h25.417v14.285c0,4.713-5.654,8.543-12.662,8.577Z" transform="translate(125.97 85.906)" fill="#e87d91"/><path d="M229.133,302.434a7.982,7.982,0,0,0-4.9,1.051,3.446,3.446,0,0,0-1.857,3.222c0,4.73,8.7,5.235,8.7,5.235Z" transform="translate(117.636 79.9)" fill="#f3a9b8"/><path d="M243.8,302.434a7.982,7.982,0,0,1,4.9,1.051,3.446,3.446,0,0,1,1.857,3.222c0,4.73-8.7,5.235-8.7,5.235Z" transform="translate(143.842 79.9)" fill="#f3a9b8"/><path d="M245.915,331.036h0c-11.463-.017-20.749-6.262-20.775-13.969V306.03c.026-7.708,9.312-13.952,20.775-13.97h0c11.463.017,20.749,6.262,20.775,13.97v11.037C266.664,324.774,257.378,331.019,245.915,331.036Z" transform="translate(121.371 73.939)" fill="#f3a9b8"/><path d="M380.648,309.07,363.32,500.308h17.539L426.441,338l26.8,162.305h16.413l.938-191.238Z" transform="translate(487.435 178.24)" fill="#f3a9b8"/><path d="M491.25,307.705s-31.35-1.372-36.93,22.2c-6.729,28.381,17.609,31.644-6.729,74.468h89.922s-19.954-15.546-4.033-51.085S516.057,307.705,491.25,307.705Z" transform="translate(420.516 82.953)" fill="#6242ba"/><path d="M474.975,324.733h0c-7.679,0-13.9-4.186-13.9-9.35V299.79h27.973v15.594c0,2.5-1.488,4.894-4.131,6.651a17.979,17.979,0,0,1-9.937,2.7Z" transform="translate(438.644 78.397)" fill="#e87d91"/><path d="M461.779,288.475a8.687,8.687,0,0,0-5.382,1.168,3.719,3.719,0,0,0-1.981,3.562c0,5.187,9.379,5.723,9.379,5.723Z" transform="translate(429.658 71.848)" fill="#f3a9b8"/><path d="M477.707,288.475a8.687,8.687,0,0,1,5.382,1.168,3.719,3.719,0,0,1,1.98,3.562c0,5.187-9.379,5.723-9.379,5.723Z" transform="translate(458.305 71.848)" fill="#f3a9b8"/><path d="M479.991,319.666h0c-12.494-.026-22.612-6.83-22.651-15.231V292.421c.039-8.4,10.157-15.2,22.651-15.231h0c12.494.026,22.612,6.83,22.651,15.231v12.015c-.039,8.4-10.157,15.2-22.651,15.231Z" transform="translate(433.628 65.364)" fill="#f3a9b8"/><path d="M453.362,339.676c0-42.161-31.3-36.012-62.676-36.012s-30.036,36.012-30.036,36.012l-6.12,71.913a224.772,224.772,0,0,0,102.139,0Z" transform="translate(295.372 80.451)" fill="#9c89e5"/><path d="M363,372,348.23,558.476h23.284l43.355-158.269,25.464,158.269H463.64L465.141,372A266.482,266.482,0,0,1,363,372Z" transform="translate(286.899 120.04)" fill="#dcd0fe"/><path d="M384.165,316.02h0c-7.316,0-13.224-.725-13.224-5.629V295.57h26.449v14.868C397.389,315.294,391.457,316.02,384.165,316.02Z" transform="translate(317.439 75.963)" fill="#e87d91"/><path d="M388.938,314.471h0c-11.89-.017-21.523-6.495-21.548-14.49V288.55c.026-8,9.658-14.473,21.548-14.49h0c11.89.017,21.523,6.495,21.549,14.49v11.431c-.026,8-9.658,14.473-21.549,14.49Z" transform="translate(312.665 63.558)" fill="#f3a9b8"/><path d="M380.782,311.68s-17.4,4.052-48.3,21.033-53.93,18.842-53.93,18.842l.188,12.992s57.541-4.73,97.73-31.644" transform="translate(193.195 85.254)" fill="#6242ba"/><path d="M259.456,346.449s-40.823-17.2-47.341-67.089h-6.378s-8.84,61.633,32.334,91.717" transform="translate(94.206 66.615)" fill="#ea4272"/><path d="M239.4,320.88s18.406,0,55.876,9.239,59.581,3.753,59.581,3.753l3,3.784s-52.992,18.826-104.014,2.286" transform="translate(140.547 90.56)" fill="#ea4272"/><path d="M414.026,452.817a411.222,411.222,0,0,1-107.414,0c-.172-22.116,5.072-44.1,15.522-65.07a39.628,39.628,0,0,0,3.377-29.405c-2.157-7.694-4.807-14.994-2.04-26.678,5.416-22.878,35.828-21.538,35.828-21.538,24.081,0,56.392,9.76,40.963,44.148q-.4.9-.774,1.766a40.766,40.766,0,0,0,1.9,35.034C415.527,419.107,414.026,452.817,414.026,452.817Z" transform="translate(230.928 84.349)" fill="#6242ba"/><path d="M337.25,311.68s17.4,4.052,48.3,21.033,53.93,16.13,53.93,16.13v13.165s-57.588-2.255-97.777-29.106" transform="translate(272.134 85.254)" fill="#6242ba"/><path d="M360.091,307.169s-22.322-1.577-63.731,19.882c-40.049,17.564-76.135,5.708-76.135,5.708l-2.345,3.958s18.5,18.148,57.377,15.247a217.582,217.582,0,0,0,67.553-16.24Z" transform="translate(111.608 82.638)" fill="#dfd2fd"/><path d="M426.68,310.6s17.985,2.617,51.585,17,59.886,13.071,59.886,13.071l-1.2,5.534s-57.611,8.514-102.279-14.9" transform="translate(392.397 84.631)" fill="#d7c5ff"/><path d="M289.59,307.169s19.3-4.115,65.654,12.2c43.941,12.614,76.44-2.475,76.44-2.475l5.276,5.219s-15.405,17.706-54.469,19.362a233.85,233.85,0,0,1-70.836-8.183Z" transform="translate(208.042 82.386)" fill="#dfd2fd"/><path d="M460.3,312.58s-15.007,7.174-37.517,29.327-46.474,26.252-46.474,26.252l3.775,7.679s57.611-8.7,84.928-42.082" transform="translate(324.661 85.773)" fill="#d7c5ff"/><path d="M382.15,303.356s22.44-1.435,60.378,22.736c37.141,20.245,74.165,10.753,74.165,10.753l2.978,8.435s-21.642,12.614-59.862,7.064c-23.613-3.6-45.726-10.712-64.716-20.812Z" transform="translate(332.514 80.444)" fill="#9c89e5"/><path d="M450.243,303.55s-23.26-.315-61.175,23.855C351.926,347.65,314.9,338.064,314.9,338.064l-4.572,7.19s23.073,13.954,61.316,8.388c23.613-3.6,45.726-10.712,64.716-20.812Z" transform="translate(235.932 80.565)" fill="#9c89e5"/><path d="M585.392,307.4s-22.44.158-59.979,24.612c-31.139,23.146-72.1,12.472-72.1,12.472l-1.571,4.226s18.758,15.515,56.814,9.681c23.549-3.775,45.542-11.048,64.364-21.285Z" transform="translate(426.097 82.786)" fill="#bba4ff"/><path d="M522.29,334.247S566.161,316.178,573.336,260h6.589s28.817,35.649-33.624,101.839" transform="translate(520.971 55.45)" fill="#bba4ff"/><path d="M473,308.22s18.36.914,54.7,12,60.261,6.307,60.261,6.307l2.345,3.958s-42.394,16.776-105.116-2.46" transform="translate(454.687 83.259)" fill="#6242ba"/><path d="M530.326,308.7s-18.149-2.712-57.4,2.081c-28.794,3.516-47.927-.11-56.064-2.286-2.6-.69-5.543.106-6.706,1.813h0c-1.181,1.662-.275,3.655,2.087,4.588,12.8,5.046,53.93,18.92,99,10.343" transform="translate(369.482 83.094)" fill="#6242ba"/><path d="M259.3,289.75c-12.3.31-23.077,5.642-27.176,13.449-7.034,13.449-25.933,24.123-11.865,30.777s3.611,19.945,32.71,22.7,33.53-10.091,33.53-21.4,13.06-8.23,7.832-22.373S272.151,289.75,259.3,289.75Z" transform="translate(107.984 72.607)" fill="#31193b"/><path d="M298.433,277.268s-19.579-.331-24.573,15.184,10.833,29.264,25.183,29.264,27.528-10.532,25.042-28.554S298.433,277.268,298.433,277.268Z" transform="translate(185.623 65.364)" fill="#ea4272"/><path d="M446.117,281.316c13.2-9.46-18.219-12.172-20.611-5-.234.725,1.548,5.361,3.189,5,0,0-21.877,4.73-18.2,23.067,1.29,6.417,3.986,14.064,12.31,18.7,8.279,4.183,19.549,4.472,28.278.725,9.379-4.367,11.865-12.834,13.2-19.425C467.993,286.188,446.117,281.316,446.117,281.316Z" transform="translate(370.076 62.514)" fill="#31193b"/><path d="M516.74,293.408c-7.691-23.367-57.048-22.184-62.84,1.419a45.167,45.167,0,0,0-1.219,10.785v52.725a183.436,183.436,0,0,0,66.24,0V306.163a42.983,42.983,0,0,0-2.181-12.755Z" transform="translate(427.361 64.96)" fill="#ea4272"/><path d="M554.054,278.926c-6.026-7.884-30.482-7.978-36.649,0-5.041,6.622-16.976,8.2-14.7,18.684s10.927,10.816,14.7,17.706c5.581,10.233,31.068,10.217,36.649,0,3.752-6.906,12.427-7.237,14.7-17.706S559.1,285.627,554.054,278.926Z" transform="translate(494.248 62.934)" fill="#4f2caf"/><path d="M214.205,284.481s2.157-8.814.141-9.665S212,279.672,212,279.672a75.683,75.683,0,0,1-2.345-7.647c-.516-2.586-5.135-2.113-6.143,2.854s4.314,9.6,4.314,9.6Z" transform="translate(92.117 61.494)" fill="#f3a9b8"/><path d="M231.406,324.833S220.174,320.1,218.2,321c-1.548.8,5.721,3.374,5.721,3.374s-7.644-.836-11.349-1.577-4.877,2.365,1.524,4.919,14.842,1.041,14.842,1.041Z" transform="translate(100.404 90.564)" fill="#f3a9b8"/><path d="M290.4,337.2s-13.131-1.293-14.373.079,7.269,1.577,7.269,1.577-7.5,1.309-11.325,1.655-3.048,3.485,4.361,4.084a40.405,40.405,0,0,0,14.256-1.719Z" transform="translate(181.319 99.654)" fill="#f3a9b8"/><path d="M288.64,330.884s10.5-5.455,12.591-4.73c1.665.694-5.205,3.737-5.205,3.737s7.5-1.324,11.091-2.286,5.205,2.034-.821,5-14.631,2-14.631,2Z" transform="translate(206.764 93.563)" fill="#f3a9b8"/><path d="M324.766,326.893s-11.231-4.73-13.2-3.831c-1.548.8,5.721,3.374,5.721,3.374s-7.644-.836-11.349-1.577-4.877,2.365,1.524,4.919,14.842,1.041,14.842,1.041Z" transform="translate(225.952 91.752)" fill="#f3a9b8"/><path d="M386.532,347.83s-13.107,1.356-13.693,2.9c-.4,1.293,7.621,0,7.621,0s-6.612,2.728-10.106,3.816-1.383,3.942,5.956,3.043a23.023,23.023,0,0,0,12.24-5.739Z" transform="translate(314.438 106.102)" fill="#f3a9b8"/><path d="M380.814,336.2s12.216-3.484,13.928-2.381c1.337.962-6.448,2.728-6.448,2.728s7.761,0,11.583-.331,4.268,2.854-2.673,4.73-16.413.694-16.413.694Z" transform="translate(330.685 97.897)" fill="#f3a9b8"/><path d="M439.53,325.55s12.216-3.484,13.928-2.381c1.336.962-6.448,2.728-6.448,2.728s7.761,0,11.583-.331,4.267,2.854-2.673,4.73-14.913-.552-14.913-.552Z" transform="translate(409.678 91.755)" fill="#f3a9b8"/><path d="M463.976,331.55s-12.216-3.484-13.928-2.381c-1.337.962,6.448,2.728,6.448,2.728s-7.761,0-11.583-.331-4.268,2.854,2.673,4.73,14.913-.552,14.913-.552Z" transform="translate(413.228 95.215)" fill="#f3a9b8"/><path d="M522,321.233s11.231-4.73,13.2-3.831c1.548.8-5.721,3.374-5.721,3.374s7.644-.836,11.349-1.577,4.877,2.365-1.524,4.919-14.842,1.056-14.842,1.056Z" transform="translate(520.581 88.488)" fill="#f3a9b8"/><path d="M237.932,357.59s-30.482,45.3-30.482,100.026c21.736,6.78,101.13,4.509,114.542,0,0,0,2.837-73.474-20.564-100.026C301.311,357.59,276.879,362.73,237.932,357.59Z" transform="translate(97.582 111.73)" fill="#31193b"/><path d="M493.39,364c-24.2,5.392-61.761,4-76.158,0,0,0-11.724,11.258-9.825,36.438a236.839,236.839,0,0,1-.68,39.118L395.8,563.137h17l44.222-161.5,26,161.486H498.97l.821-124.386a213.491,213.491,0,0,1,3.283-37.652C506.591,382.274,501.925,372.4,493.39,364Z" transform="translate(350.871 115.427)" fill="#31193b"/><path d="M535.51,340.682a264.659,264.659,0,0,1-73.931-.142,259.726,259.726,0,0,0-17.4,93.309c26.285,6.023,91.611,2.886,106.289,0C550.469,433.849,549.273,365.673,535.51,340.682Z" transform="translate(415.93 101.897)" fill="#31193b"/><path d="M277.61,307.535l2.345-.71s0,7.284,12.967,7.284,12.99-7.6,12.99-7.6l1.97.5s2.345,9.649-14.96,9.649S277.61,307.535,277.61,307.535Z" transform="translate(191.838 82.272)" fill="#bba4ff"/><path d="M373.32,302.561s.774,8.215,13.225,8.215,13.225-8.546,13.225-8.546l3.963,1.924s.187,9.823-17.187,9.823-17.375-9.571-17.375-9.571Z" transform="translate(315.059 79.804)" fill="#6242ba"/><path d="M315.5,349.42l-.492,3.642s30.177,6.874,70.343,0l-.235-3.642C345.469,355.207,315.5,349.42,315.5,349.42Z" transform="translate(242.226 107.019)" fill="#31193b"/><path d="M359,336.957s19.11-12.125,1.313-29.957" transform="translate(301.383 82.555)" fill="none" stroke="#31193b" stroke-miterlimit="10" stroke-width="0.25"/><path d="M403.991,338.309s-27.176-7.883-4.455-30.919" transform="translate(343.711 82.78)" fill="none" stroke="#31193b" stroke-miterlimit="10" stroke-width="0.25"/><path d="M266.631,384.37l32.569,4.147s2.345,17.107-18.266,17.107S266.631,384.37,266.631,384.37Z" transform="translate(175.945 127.174)" fill="none" stroke="#31193b" stroke-miterlimit="10" stroke-width="0.25"/><path d="M319.732,384.37l-32.686,4.147s-2.345,17.107,18.266,17.107S319.732,384.37,319.732,384.37Z" transform="translate(204.513 127.174)" fill="none" stroke="#31193b" stroke-miterlimit="10" stroke-width="0.25"/><path d="M498,371.22s47.5,9.3,86.545,0" transform="translate(488.307 119.591)" fill="none" stroke="#31193b" stroke-miterlimit="10" stroke-width="0.25"/><path d="M418.56,278.13a19.764,19.764,0,0,0,14.866,0" transform="translate(381.478 65.906)" fill="none" stroke="#f96c96" stroke-miterlimit="10" stroke-width="0.52"/><path d="M405.854,362.71s39.228,6.969,74.353,0l.867,2.018s-11.724,4.131-37.516,4.131-38.618-4.115-38.618-4.115Z" transform="translate(363.162 114.683)" fill="#6242ba"/><path d="M335.1,308.041V304.02l2.954.268v4.21Z" transform="translate(449.486 175.328)" fill="#31193b"/><path d="M354.983,308.089V304.21l-2.673.221v3.658Z" transform="translate(472.629 175.437)" fill="#31193b"/><path d="M264.946,458.653l-.657.095c0-67.4-18.758-100.278-19.04-100.609l.586-.079C246.024,358.391,264.946,391.171,264.946,458.653Z" transform="translate(148.414 112.001)" fill="#6242ba"/><path d="M266.87,311.09s7.808,10.564,0,24.77" transform="translate(177.488 84.914)" fill="none" stroke="#bba4ff" stroke-miterlimit="10" stroke-width="0.25"/><path d="M303.442,331.892s-8.324-9.634,0-22.862" transform="translate(221.694 83.726)" fill="none" stroke="#bba4ff" stroke-miterlimit="10" stroke-width="0.25"/><line x1="17.375" y2="185.089" transform="translate(640.476 493.46)" fill="none" stroke="#bba4ff" stroke-miterlimit="10" stroke-width="0.25"/><line x2="4.103" y2="171.829" transform="translate(742.591 493.743)" fill="none" stroke="#bba4ff" stroke-miterlimit="10" stroke-width="0.25"/><line x2="3.892" y2="6.401" transform="translate(707.583 453.916)" fill="none" stroke="#bba4ff" stroke-miterlimit="10" stroke-width="0.25"/><path d="M371.164,279.811a43.451,43.451,0,0,0-23.565,1.372,38.763,38.763,0,0,0-11.513,6.07h0a73.535,73.535,0,0,0-9.614,9c-2.931,3.721-20.493,14.458-17.937,24.691a14.237,14.237,0,0,1,4.69-8.01c-1.665,2.712-1.712,5.723,1.43,9.823,6.823-6.8,24.784,2.822,54.329,2.822C395.6,325.551,403.311,287.426,371.164,279.811Z" transform="translate(233.178 66.29)" fill="#31193b"/><path d="M417.1,284.87c0-5.345-6.354-8.42-12.8-10.17a44.727,44.727,0,0,0-27.785.977c-5.4,2.117-9.154,5.718-10.27,9.854h0v.173a12.189,12.189,0,0,0-.446,3.153,75,75,0,0,0,.281,8.12l-.281,18.1,1.524-3.563v3.563h47.482s.211-1.293.75-7.1l1.594,7.1Z" transform="translate(310.527 62.918)" fill="#4f2caf"/><path d="M502.65,311.95c3.206-4.072,9.989-6.26,16.718-5.392,11.724,1.435,13.529,4.825,20.587,2.728s10.692-5.156,16.812-5.156c0,12.03-2.345,21.254-18.57,23.24S519.063,310.768,502.65,311.95Z" transform="translate(494.56 80.9)" fill="#9c89e5"/><path d="M373.97,274.832l1.477-4.162,2.181.489-1.548,4.226Z" transform="translate(501.757 156.095)" fill="#9c89e5"/><rect width="6.589" height="1.514" transform="translate(1094.283 313.952)" fill="#9c89e5"/></g><path d="M77.36,415.04v51.631H1475.433V415.04C862.743,470.447,533.02,360.825,77.36,415.04Z" transform="translate(-76.433 133.329)" fill="#fff"/><path d="M129.9,275.061h96.678s-5.033-21.146-33.223-14.108c-27.187-23.8-46.315-1.441-46.315-1.441S129.9,258.286,129.9,275.061Z" transform="translate(-29.57 49.383)" fill="#fff"/><path d="M578.23,253.431h96.66s-5.032-21.146-33.223-14.108c-27.187-23.8-46.315-1.441-46.315-1.441S578.23,236.689,578.23,253.431Z" transform="translate(640.316 36.942)" fill="#fff"/><path d="M521.16,225.251h74.675s-7.133-16.261-26.2-9.339C556.634,197.1,521.16,203.906,521.16,225.251Z" transform="translate(534.674 23.555)" fill="#fff"/></svg>