<svg xmlns="http://www.w3.org/2000/svg" xmlns:xlink="http://www.w3.org/1999/xlink" width="1399" height="485.41" viewBox="0 0 1399 485.41"><defs><clipPath id="a"><rect y="174" width="1399" height="485.41" fill="none"/></clipPath><linearGradient id="c" x1="0.5" y1="1.019" x2="0.5" y2="0.023" gradientUnits="objectBoundingBox"><stop offset="0" stop-color="#e6c74c"/><stop offset="0.16" stop-color="#f3bd81" stop-opacity="0.749"/><stop offset="0.349" stop-color="#efe3c4" stop-opacity="0.486"/><stop offset="0.523" stop-color="#fec84c" stop-opacity="0.275"/><stop offset="0.676" stop-color="#ffd574" stop-opacity="0.125"/><stop offset="0.802" stop-color="#ffcc92" stop-opacity="0.031"/><stop offset="0.886" stop-color="#f2c576" stop-opacity="0"/><stop offset="1" stop-color="#f8cd42" stop-opacity="0"/></linearGradient><linearGradient id="d" x1="0.5" y1="1.019" x2="0.5" y2="0.013" gradientUnits="objectBoundingBox"><stop offset="0" stop-color="#e0c867"/><stop offset="0.886" stop-color="#fff" stop-opacity="0"/><stop offset="1" stop-color="#fff" stop-opacity="0"/></linearGradient><linearGradient id="e" x1="0.5" y1="-0.001" x2="0.5" y2="1.072" gradientUnits="objectBoundingBox"><stop offset="0" stop-color="#e09f67"/><stop offset="0.886" stop-color="#fff" stop-opacity="0"/><stop offset="1" stop-color="#fff" stop-opacity="0"/></linearGradient><linearGradient id="f" x1="0.5" y1="0.001" x2="0.5" y2="1.071" gradientUnits="objectBoundingBox"><stop offset="0" stop-color="#e0a467"/><stop offset="0.886" stop-color="#fff" stop-opacity="0"/><stop offset="1" stop-color="#fff" stop-opacity="0"/></linearGradient></defs><g transform="translate(0 -174)" clip-path="url(#a)" style="isolation:isolate"><g clip-path="url(#a)" style="isolation:isolate"><rect width="1218.4" height="659.41" transform="translate(180.6)" opacity="0.5" fill="url(#c)"/><g transform="translate(0 42.225)"><path d="M942.1,671.7h-783V54.7H475.363C497.917,148.428,621.124,595.386,942.1,671.7Z" transform="translate(-159.1 -54.7)" opacity="0.5" fill="url(#d)"/><ellipse cx="90.553" cy="91.85" rx="90.553" ry="91.85" transform="translate(14.98 222.967)" opacity="0.5" fill="url(#e)"/><path d="M90.553,0c50.011,0,90.553,41.123,90.553,91.85S140.564,183.7,90.553,183.7,0,142.577,0,91.85,40.542,0,90.553,0Z" transform="translate(183.126 377.814)" fill="#eb9d5b" opacity="0.5"/><ellipse cx="69.851" cy="70.851" rx="69.851" ry="70.851" transform="translate(216.958 148.701)" opacity="0.5" fill="url(#f)"/><path d="M784.692,431.173c0,6.488-10.1,12.634-28.109,18.1H275.709c-18.01-5.463-28.109-11.609-28.109-18.1,0-16.56,66.148-30.9,160.909-37.218-2.861-2.732-4.545-5.8-4.545-8.878,0-5.8,5.554-11.1,15.148-15.877H658.288c9.762,4.78,15.148,10.243,15.148,15.877,0,4.268-3.03,8.366-8.752,12.292C737.059,404.711,784.692,417,784.692,431.173Z" transform="translate(-98.641 167.73)" fill="#c67229" opacity="0.3"/><g transform="translate(0 177.313)"><path d="M159.1,521.4h64.633l-23.564-253.7c-1.01.171-20.2-2.561-41.069,3.244Z" transform="translate(-159.1 -81.715)" fill="#9a5d28"/><path d="M159.1,283.07c13.8-8.707,29.287-11.78,41.405-12.634l-.337-2.732c-1.01.171-20.2-2.561-41.069,3.244Z" transform="translate(-159.1 -81.715)" fill="#f18528"/><path d="M470.716,370.669c2.861,4.78,3.2,10.414,3.366,16.048a11.915,11.915,0,0,1-.337,4.268,10.73,10.73,0,0,1-4.376,5.8c-5.218,3.756-11.95,4.61-18.178,4.1-6.4-.512-12.455-2.39-18.683-3.415-14.138-2.732-28.613-2.049-43.089-1.536-.168-10.073-1.01-20.146-2.02-30.218,7.742-3.244,14.475-8.536,21.544-12.975,7.238-4.268,15.485-7.683,23.732-6.317a40.792,40.792,0,0,1,12.96,5.292c4.713,2.732,9.426,5.8,14.138,8.878C463.815,363.5,468.191,366.231,470.716,370.669Z" transform="translate(-3.138 -25.905)" fill="#ffecee"/><path d="M298.334,264.3s18.01,4.951,33.495,56c15.485,50.876,19.861,58.559,19.861,58.559s75.573,34.657,96.781,35.852c21.039,1.2,23.9,0,23.9,0v42.34s-60.93.341-94.425-6.488c-33.663-6.829-60.257-23.9-73.554-37.73s-26.594-32.1-26.594-32.1Z" transform="translate(-78.01 -83.773)" fill="#dc8c46"/><path d="M395.9,442l6.564,5.634,80.686-48.474,41.51-24.938V365l-8.416,2.049-117.82,70.68Z" transform="translate(2.669 -12.553)" fill="#f18528"/><path d="M346.472,407.166,335.7,410.58v8.195H443.59V410.58l-1.515-4.78Z" transform="translate(-38.456 16.303)" fill="#f18528"/><path d="M471.867,363.3c-1.178.341-136.167,77.338-136.167,77.338H443.758L565.786,366.2Z" transform="translate(-38.456 -13.755)" fill="#eb9d5b"/><path d="M263.513,243.4s-66.148,1.707-84.157,53.778-11.109,138.458-11.109,154.165-1.347,86.728-1.347,86.728H362.313s-5.723-60.607-4.376-75.29c1.178-14.682,12.96-49.34,22.049-77.509,9.089-28.34,17.168-40.291,13.97-77.338s-49.484-44.047-49.484-44.047Z" transform="translate(-153.771 -98.555)" fill="#c16a1e"/><path d="M254,302.771l16.831-14.17,15.485,18.951-9.089-55.315L264.772,250.7Z" transform="translate(-94.269 -93.392)" fill="#efb888"/><path d="M256.132,237.034s-9.931-2.9-18.178,0-14.307,7.683-13.633,15.024,16.158,22.706,16.158,22.706l15.653,6.658Z" transform="translate(-114.58 -103.969)" fill="#c67229"/><path d="M288.6,284.334l-2.02,17.585-.168,2.219c-3.366,5.463-18.683,25.609-18.683,25.609L237.6,288.6c-.337-9.731-.842-20.828-1.347-31.413-.5-10.926-1.178-21.511-1.515-29.535-.5-9.048-.842-14.853-.842-14.853l14.475,2.9,11.782,19.975Z" transform="translate(-108.001 -120.196)" fill="#efdcde"/><path d="M288.261,278.251l-2.02,17.585c-30.8-10.926-44.435-29.023-50.326-44.9-.5-10.926-1.178-21.511-1.515-29.535l25.416,8.024Z" transform="translate(-107.659 -114.114)" fill="#dccdcf"/><path d="M433.331,412.8a6,6,0,0,1-2.525,2.9c-6.4,4.78-15.485,4.78-22.386,1.024h0a18.594,18.594,0,0,1-4.208-3.244,4.3,4.3,0,0,1,.673,1.2h0a11.987,11.987,0,0,1,.337,7.683c-1.01,3.756-3.7,7-6.564,9.731a50.837,50.837,0,0,1-13.128,9.219c-2.861,1.366-5.891,2.561-9.089,2.39a8.4,8.4,0,0,1-7.069-4.1h0l-.5-1.024c-.168,0-.5.171-.673.171-26.93,8.878-58.069,8.195-82.474-6.488a342.952,342.952,0,0,1,.337-34.828c11.614.683,23.059.342,33.158-5.634,18.178-10.756,38.376-21,59.247-18.1A50.285,50.285,0,0,1,402.7,384.292a79.863,79.863,0,0,1,6.9,6.317h0c1.683,1.707,3.366,3.414,5.218,5.122a41.365,41.365,0,0,0,10.436,7.683c1.851,1.024,4.039,1.707,5.554,3.073C432.826,408.364,434,410.754,433.331,412.8Z" transform="translate(-72.801 -6.748)" fill="#ffecee"/><g transform="translate(286.932 374.499)"><g transform="translate(2.503)"><path d="M383.978,392.912l-1.178-.341-.168-.171a62.07,62.07,0,0,0-19.188-11.609c-11.95-4.61-31.307,1.366-31.475,1.537-.337.171-.673-.171-.842-.342a.627.627,0,0,1,.337-.854c.841-.171,20.029-6.146,32.316-1.366a64.9,64.9,0,0,1,14.812,8.024h0C380.443,389.5,382.294,391.2,383.978,392.912Z" transform="translate(-331.061 -377.917)" fill="#fcb6bd"/></g><g transform="translate(0 15.242)"><path d="M374.053,403.841a4.293,4.293,0,0,1,.673,1.2c-1.01-1.024-2.02-2.049-2.861-2.732-4.881-4.439-8.079-6.829-17.168-11.951-8.584-4.78-24.069,0-24.237,0a.612.612,0,0,1-.842-.341c-.168-.342.168-.683.5-.854.673-.171,16.327-5.122,25.247,0,8.584,4.951,12.119,7.341,17.336,12.121,1.346,1.366,3.366,3.415,5.386,5.634A15.845,15.845,0,0,1,374.053,403.841Z" transform="translate(-329.573 -386.844)" fill="#fcb6bd"/></g><g transform="translate(8.415 43.565)"><path d="M344.212,404.4c-8.921,6.146-8.247,12.8-8.247,12.975v.171l-.168,1.024-.5-1.024c-.168,0-.5.171-.673.171v-.171c-.168-.854-.337-7.683,8.752-14,.337-.171.673-.171.842.171C344.549,403.717,344.549,404.229,344.212,404.4Z" transform="translate(-334.573 -403.434)" fill="#fcb6bd"/></g></g><g transform="translate(425.836 132.041)"><path d="M466.518,393.6l-5.218,1.2.505,3.414,27.6,9.731,11.277-5.122-5.218-6.658Z" transform="translate(-378.489 -124.367)" fill="#f32876"/><path d="M526.774,399.241,466.181,391.9,461.3,396l45.613,12.121Z" transform="translate(-378.489 -125.569)" fill="#c1216c"/><path d="M434.486,241.7l-6.9-5.8h-8.247L412.1,483.11h10.267l4.881-6.146Z" transform="translate(-412.1 -235.9)" fill="#f32876"/><path d="M423.418,235.9,418.2,483.11l127.078-27.487,7.574-186.261Z" transform="translate(-407.933 -235.9)" fill="#c1216c"/><path d="M432.335,412.177l-3.535-2.219,13.3-4.61h23.4l75.068-9.048,5.049,9.048-15.653,5.463Z" transform="translate(-400.691 -122.457)" fill="#f32876"/><path d="M477.629,360.649,466.352,358.6l-1.852,8.024,36.524,60.437,12.624,4.951,5.386-4.1Z" transform="translate(-376.303 -149.12)" fill="#f32876"/><path d="M479.486,291.919l-8.079-9.219L457.1,291.919V416.548l12.455,3.756,7.237-8.365Z" transform="translate(-381.358 -202.801)" fill="#b21961"/><path d="M428.8,443.545H536.185l25.079-10.756L508.413,357.5l-17.673,1.878,47.3,73.412-92.068,4.61H428.8Z" transform="translate(-400.691 -149.898)" fill="#c1216c"/><path d="M466.352,282.7,464.5,420.3l26.257-5.292V286.8Z" transform="translate(-376.303 -202.801)" fill="#f32876"/></g><path d="M333.865,250.911c2.02,36.364-13.3,66.924-37.029,70.68-26.257,4.268-52.682-25.95-59.247-67.266-5.218-33.121,4.04-63.168,21.376-76.143a33.369,33.369,0,0,1,14.475-6.317,31.129,31.129,0,0,1,15.822,1.536c15.317.512,44.435,5.975,48.643,38.072,1.347,9.9.337,22.194-4.208,37.559v.341h0C333.7,249.887,333.865,250.4,333.865,250.911Z" transform="translate(-106.472 -149.43)" fill="#efdcde"/><path d="M328.64,211.474c-39.722,4.61-77.93-32.267-78.94-33.291a33.369,33.369,0,0,1,14.475-6.317A31.129,31.129,0,0,1,280,173.4C295.313,173.914,324.432,179.378,328.64,211.474Z" transform="translate(-97.207 -149.43)" fill="#dccdcf"/><path d="M280.707,230.8s4.881,10.926,14.812,3.756c0,0-5.218,8.024-16.158,2.39C279.528,236.946,274.816,231.654,280.707,230.8Z" transform="translate(-78.056 -107.466)" fill="#fcb6bd"/><path d="M266.4,233.2s9.257,9.39,30.633,9.731c0,0-1.515,11.268-12.96,10.414C272.628,252.321,268.083,239.517,266.4,233.2Z" transform="translate(-85.798 -105.769)" fill="#fff"/><path d="M262.99,166.02s-32.316-3.073-33.663,39.779c0,0-14.475,40.633,15.317,52.413,0,0,12.455,10.926,20.366,2.561s0-36.877,0-36.877,15.653-21,9.426-38.925Z" transform="translate(-113.526 -153.316)" fill="#752500"/><path d="M337.188,206.6a18.255,18.255,0,0,1-5.218,3.073c-.168,0-.168.171-.337.171-17.168,6.488-42.079-12.975-60.593-13.658a31.5,31.5,0,0,1-19.188-7,62.54,62.54,0,0,1-4.713-4.61,29.048,29.048,0,0,1-3.871-6.317c-2.02-12.122,14.138-21.853,46.96-19.292C323.05,161.19,354.02,192.262,337.188,206.6Z" transform="translate(-101.716 -158.559)" fill="#752500"/><path d="M312.957,170.486c-11.277-5.463-25.247-6.488-40.9-1.878a46.737,46.737,0,0,0-18.515,10.414c-21.713,20.316-20.029,57.705-20.029,57.705l7.574-.683C241.255,217.948,246.3,156.316,312.957,170.486Z" transform="translate(-108.286 -153.514)" fill="#c67229"/><g transform="translate(180.09 78.59)"><path d="M289.33,212.63a1.805,1.805,0,0,1-1.178-.512c-7.742-9.9-19.693-2.561-20.2-2.219a1.293,1.293,0,0,1-1.683-.341,1.336,1.336,0,0,1,.337-1.707c.168-.171,14.307-8.878,23.4,2.9a1.151,1.151,0,0,1-.168,1.707C289.667,212.459,289.5,212.63,289.33,212.63Z" transform="translate(-266.096 -204.592)" fill="#752500"/></g><g transform="translate(219.307 87.391)"><path d="M302.195,215.984a1.194,1.194,0,0,1-1.01-.512c-3.7-5.8-9.762-2.049-9.931-1.878a1.293,1.293,0,0,1-1.683-.341,1.336,1.336,0,0,1,.337-1.707c2.861-1.878,9.426-3.756,13.465,2.561a1.336,1.336,0,0,1-.337,1.707A2.224,2.224,0,0,1,302.195,215.984Z" transform="translate(-289.396 -209.747)" fill="#752500"/></g><path d="M248.754,273.4s-14.812-9.9-16.831-22.877c-1.346-8.366,7.069-10.585,13.129-11.1,0-1.366-.168-2.561-.168-3.927-5.891.171-15.485,1.707-21.208,8.536-8.752,10.414,4.544,50.364,34.5,83.826l5.554-25.609,12.792,11.268-7.911-21Z" transform="translate(-116.796 -104.142)" fill="#efb888"/><path d="M275.284,258.509l-9.426-2.732a6.475,6.475,0,0,1-4.376-7.853h0a6.36,6.36,0,0,1,7.742-4.439l9.426,2.732a6.475,6.475,0,0,1,4.376,7.853h0A6.36,6.36,0,0,1,275.284,258.509Z" transform="translate(-89.296 -98.64)" fill="#231f20"/><g transform="translate(128.896 87.823)"><path d="M281.495,273.851h0c-.5-.171-10.94-2.219-28.445-18.438-17.673-16.39-17.5-43.193-17.336-44.218a1.178,1.178,0,1,1,2.356,0c0,.341-.168,26.8,16.663,42.51,17,15.707,27.267,17.926,27.435,17.926A1.056,1.056,0,0,1,283.01,273,1.574,1.574,0,0,1,281.495,273.851Z" transform="translate(-235.681 -210)" fill="#c67229"/></g><ellipse cx="17.336" cy="24.243" rx="17.336" ry="24.243" transform="translate(109.741 67.336)" fill="#f18528"/><ellipse cx="10.099" cy="15.536" rx="10.099" ry="15.536" transform="translate(106.88 76.897)" fill="#c67229"/><path d="M171.529,348.936c.337,1.878,24.742,131.8,50.831,143.58s147.949,23.56,147.949,23.56l5.386-47.632s-86.85-23.219-102-32.779c-15.148-9.39-26.93-97.484-26.93-97.484s7.406-49.51-29.118-67.607C180.787,252.647,160.42,297.206,171.529,348.936Z" transform="translate(-152.678 -82.193)" fill="#d69258"/><g transform="translate(182.775 90.362)"><path d="M283.864,217.484c-.337,0-.673,0-.842-.341-6.059-7.683-13.633-2.049-13.97-1.707a.805.805,0,0,1-1.178-.171.832.832,0,0,1,.168-1.2c.168,0,9.257-7,16.327,2.049a.832.832,0,0,1-.168,1.2A.586.586,0,0,1,283.864,217.484Z" transform="translate(-267.691 -211.487)" fill="#fcb6bd"/></g><g transform="translate(217.729 98.457)"><path d="M297.954,217.716a4.791,4.791,0,0,0,.168,1.536c-3.7-3.756-8.584-.854-8.752-.683-.337.171-.673.171-.842-.171a.758.758,0,0,1,.168-.854s5.218-3.073,9.426.171c0-.171-.168-.171-.168,0Z" transform="translate(-288.459 -216.229)" fill="#fcb6bd"/></g></g></g></g></g></svg>